<svg xmlns="http://www.w3.org/2000/svg" width="1200" height="760" viewBox="0 0 1200 760" fill="none">
  <defs>
    <linearGradient id="paper" x1="0" y1="0" x2="0" y2="1">
      <stop offset="0" stop-color="#FFFFFF"/>
      <stop offset="1" stop-color="#F2F4EC"/>
    </linearGradient>
    <linearGradient id="ink" x1="0" y1="0" x2="1" y2="1">
      <stop offset="0" stop-color="#2B3414"/>
      <stop offset="1" stop-color="#1E260C"/>
    </linearGradient>
  </defs>
  <rect width="1200" height="760" rx="48" fill="#F0F2EA"/>
  <rect x="180" y="120" width="820" height="520" rx="36" fill="url(#paper)" stroke="rgba(0,0,0,0.08)" stroke-width="2"/>
  <rect x="240" y="190" width="520" height="38" rx="12" fill="rgba(43,52,20,0.12)"/>
  <rect x="240" y="250" width="360" height="20" rx="10" fill="rgba(43,52,20,0.10)"/>
  <rect x="240" y="290" width="420" height="20" rx="10" fill="rgba(43,52,20,0.10)"/>
  <rect x="240" y="330" width="460" height="20" rx="10" fill="rgba(43,52,20,0.10)"/>
  <rect x="240" y="390" width="700" height="14" rx="7" fill="rgba(43,52,20,0.08)"/>
  <rect x="240" y="418" width="660" height="14" rx="7" fill="rgba(43,52,20,0.08)"/>
  <rect x="240" y="446" width="690" height="14" rx="7" fill="rgba(43,52,20,0.08)"/>
  <rect x="240" y="474" width="620" height="14" rx="7" fill="rgba(43,52,20,0.08)"/>
  <rect x="240" y="522" width="240" height="54" rx="18" fill="#C9FF6A"/>
  <rect x="520" y="522" width="190" height="54" rx="18" fill="rgba(43,52,20,0.08)"/>
  <path d="M940 610 L1030 520" stroke="url(#ink)" stroke-width="18" stroke-linecap="round"/>
  <path d="M952 622 L1042 532" stroke="rgba(201,255,106,0.45)" stroke-width="10" stroke-linecap="round"/>
  <circle cx="1038" cy="520" r="22" fill="url(#ink)"/>
  <circle cx="1038" cy="520" r="10" fill="#C9FF6A"/>
</svg>
